<?xml version="1.0" standalone="no"?>
<!DOCTYPE svg PUBLIC "-//W3C//DTD SVG 20010904//EN"
 "http://www.w3.org/TR/2001/REC-SVG-20010904/DTD/svg10.dtd">
<svg version="1.0" xmlns="http://www.w3.org/2000/svg"
 width="200.000000pt" height="200.000000pt" viewBox="0 0 200.000000 200.000000"
 preserveAspectRatio="xMidYMid meet">
<metadata>
Created by potrace 1.11, written by Peter Selinger 2001-2013
</metadata>
<g transform="translate(0.000000,200.000000) scale(0.100000,-0.100000)"
fill="#000000" stroke="none">
<path d="M0 995 l0 -995 1000 0 1000 0 0 995 0 995 -1000 0 -1000 0 0 -995z
m1368 548 l3 -33 -145 0 -146 0 0 -85 0 -85 135 0 135 0 0 -35 0 -35 -135 0
-135 0 0 -105 0 -105 145 0 145 0 0 -35 0 -35 -185 0 -185 0 0 295 0 295 183
-2 182 -3 3 -32z m-888 -88 l0 -115 145 0 145 0 0 115 0 115 35 0 35 0 0 -290
0 -290 -35 0 -35 0 0 140 0 140 -145 0 -145 0 0 -140 0 -140 -40 0 -40 0 0
290 0 290 40 0 40 0 0 -115z"/>
</g>
</svg>
